<?xml version="1.0" encoding="UTF-8" standalone="no"?>
<!-- Generator: Adobe Illustrator 18.0.0, SVG Export Plug-In . SVG Version: 6.00 Build 0)  -->

<svg
   xmlns:dc="http://purl.org/dc/elements/1.1/"
   xmlns:cc="http://creativecommons.org/ns#"
   xmlns:rdf="http://www.w3.org/1999/02/22-rdf-syntax-ns#"
   xmlns:svg="http://www.w3.org/2000/svg"
   xmlns="http://www.w3.org/2000/svg"
   xmlns:xlink="http://www.w3.org/1999/xlink"
   xmlns:sodipodi="http://sodipodi.sourceforge.net/DTD/sodipodi-0.dtd"
   xmlns:inkscape="http://www.inkscape.org/namespaces/inkscape"
   version="1.1"
   id="Capa_1"
   x="0px"
   y="0px"
   viewBox="0 0 301.055 301.055"
   style="enable-background:new 0 0 301.055 301.055;"
   xml:space="preserve"
   sodipodi:docname="mission.svg"
   inkscape:version="0.92.1 r15371"><metadata
     id="metadata39"><rdf:RDF><cc:Work
         rdf:about=""><dc:format>image/svg+xml</dc:format><dc:type
           rdf:resource="http://purl.org/dc/dcmitype/StillImage" /></cc:Work></rdf:RDF></metadata><defs
     id="defs37"><linearGradient
       inkscape:collect="always"
       id="linearGradient4832"><stop
         style="stop-color:#f15739;stop-opacity:1;"
         offset="0"
         id="stop4828" /><stop
         style="stop-color:#007893;stop-opacity:0.97487438"
         offset="1"
         id="stop4830" /></linearGradient><linearGradient
       inkscape:collect="always"
       xlink:href="#linearGradient4832"
       id="linearGradient4834"
       x1="188.52235"
       y1="94.627777"
       x2="196.45114"
       y2="126.29002"
       gradientUnits="userSpaceOnUse" /></defs><sodipodi:namedview
     pagecolor="#ffffff"
     bordercolor="#666666"
     borderopacity="1"
     objecttolerance="10"
     gridtolerance="10"
     guidetolerance="10"
     inkscape:pageopacity="0"
     inkscape:pageshadow="2"
     inkscape:window-width="1366"
     inkscape:window-height="713"
     id="namedview35"
     showgrid="false"
     inkscape:measure-start="0,0"
     inkscape:measure-end="0,0"
     inkscape:zoom="0.78390994"
     inkscape:cx="150.5275"
     inkscape:cy="150.5275"
     inkscape:window-x="-8"
     inkscape:window-y="-8"
     inkscape:window-maximized="1"
     inkscape:current-layer="Capa_1" /><path
     d="M189.798,31.551c0-4.143-3.357-7.5-7.5-7.5h-79.453c-4.143,0-7.5,3.357-7.5,7.5v47.687c0,4.143,3.357,7.5,7.5,7.5h71.953  v21.186L102.845,179.9l-18.532-18.54c-1.571-1.571-3.769-2.362-5.97-2.168c-2.213,0.197-4.225,1.365-5.493,3.189L1.342,265.221  c-1.594,2.292-1.782,5.28-0.488,7.755c1.293,2.476,3.855,4.026,6.647,4.026h286.035c0.008,0.001,0.016,0.001,0.02,0  c4.143,0,7.5-3.357,7.5-7.5c0-1.783-0.622-3.421-1.661-4.708L189.798,108.66V31.551z M110.345,71.738V39.051h64.453v32.687H110.345z   M21.85,262.003l58.195-83.694l17.495,17.503c1.407,1.406,3.315,2.197,5.305,2.197c1.989,0,3.897-0.791,5.304-2.197l73.141-73.165  l97.818,139.357H21.85z"
     id="path2"
     style="fill:url(#linearGradient4834);fill-opacity:1" /><g
     id="g4" /><g
     id="g6" /><g
     id="g8" /><g
     id="g10" /><g
     id="g12" /><g
     id="g14" /><g
     id="g16" /><g
     id="g18" /><g
     id="g20" /><g
     id="g22" /><g
     id="g24" /><g
     id="g26" /><g
     id="g28" /><g
     id="g30" /><g
     id="g32" /></svg>