<?xml version="1.0" encoding="UTF-8" standalone="no"?>
<!-- Generator: Adobe Illustrator 19.0.0, SVG Export Plug-In . SVG Version: 6.00 Build 0)  -->

<svg
   xmlns:dc="http://purl.org/dc/elements/1.1/"
   xmlns:cc="http://creativecommons.org/ns#"
   xmlns:rdf="http://www.w3.org/1999/02/22-rdf-syntax-ns#"
   xmlns:svg="http://www.w3.org/2000/svg"
   xmlns="http://www.w3.org/2000/svg"
   xmlns:sodipodi="http://sodipodi.sourceforge.net/DTD/sodipodi-0.dtd"
   xmlns:inkscape="http://www.inkscape.org/namespaces/inkscape"
   version="1.1"
   id="Layer_1"
   x="0px"
   y="0px"
   viewBox="0 0 512 512"
   style="enable-background:new 0 0 512 512;"
   xml:space="preserve"
   sodipodi:docname="vision.svg"
   inkscape:version="0.92.1 r15371"><metadata
     id="metadata247"><rdf:RDF><cc:Work
         rdf:about=""><dc:format>image/svg+xml</dc:format><dc:type
           rdf:resource="http://purl.org/dc/dcmitype/StillImage" /></cc:Work></rdf:RDF></metadata><defs
     id="defs245" /><sodipodi:namedview
     pagecolor="#ffffff"
     bordercolor="#666666"
     borderopacity="1"
     objecttolerance="10"
     gridtolerance="10"
     guidetolerance="10"
     inkscape:pageopacity="0"
     inkscape:pageshadow="2"
     inkscape:window-width="1366"
     inkscape:window-height="713"
     id="namedview243"
     showgrid="false"
     inkscape:zoom="0.4609375"
     inkscape:cx="256"
     inkscape:cy="256"
     inkscape:window-x="-8"
     inkscape:window-y="-8"
     inkscape:window-maximized="1"
     inkscape:current-layer="Layer_1" /><g
     id="g6"
     style="fill:#ef4423;fill-opacity:1"><g
       id="g4"
       style="fill:#ef4423;fill-opacity:1"><path
         d="M509.778,250.021C505.152,244.672,394.926,118.857,256,118.857S6.848,244.672,2.222,250.03    c-2.962,3.429-2.962,8.521,0,11.95C6.848,267.328,117.074,393.143,256,393.143S505.152,267.328,509.778,261.97    C512.741,258.542,512.741,253.449,509.778,250.021z M21.568,256c16.64-17.481,69.477-69.019,138.862-98.158    c-25.6,24.923-41.573,59.694-41.573,98.158c0,38.464,15.973,73.234,41.573,98.158C91.045,325.02,38.208,273.481,21.568,256z     M256,374.857c-65.536,0-118.857-53.321-118.857-118.857S190.464,137.143,256,137.143S374.857,190.464,374.857,256    S321.536,374.857,256,374.857z M351.579,354.158c25.591-24.923,41.563-59.694,41.563-98.158c0-38.464-15.973-73.234-41.573-98.158    c69.385,29.138,122.222,80.677,138.862,98.158C473.792,273.481,420.965,325.02,351.579,354.158z"
         id="path2"
         style="fill:#ef4423;fill-opacity:1" /></g></g><g
     id="g12"
     style="fill:#ef4423;fill-opacity:1"><g
       id="g10"
       style="fill:#ef4423;fill-opacity:1"><path
         d="M182.857,256h18.286c0-30.254,24.603-54.857,54.857-54.857v-18.286C215.671,182.857,182.857,215.671,182.857,256z"
         id="path8"
         style="fill:#ef4423;fill-opacity:1" /></g></g><g
     id="g18"
     style="fill:#ef4423;fill-opacity:1"><g
       id="g16"
       style="fill:#ef4423;fill-opacity:1"><path
         d="M310.857,256c0,30.254-24.603,54.857-54.857,54.857v18.286c40.329,0,73.143-32.814,73.143-73.143H310.857z"
         id="path14"
         style="fill:#ef4423;fill-opacity:1" /></g></g><g
     id="g24"
     style="fill:#007893;fill-opacity:1"><g
       id="g22"
       style="fill:#007893;fill-opacity:1"><path
         d="M104.923,84.489c-4.855,4.288-9.563,8.805-14.007,13.449l13.202,12.645c4.087-4.27,8.43-8.439,12.901-12.379    L104.923,84.489z"
         id="path20"
         style="fill:#007893;fill-opacity:1" /></g></g><g
     id="g30"
     style="fill:#007893;fill-opacity:1"><g
       id="g28"
       style="fill:#007893;fill-opacity:1"><path
         d="M56.347,144.677c-3.136,5.632-6.08,11.474-8.731,17.353l16.658,7.525c2.45-5.413,5.147-10.779,8.037-15.963    L56.347,144.677z"
         id="path26"
         style="fill:#007893;fill-opacity:1" /></g></g><g
     id="g36"
     style="fill:#007893;fill-opacity:1"><g
       id="g34"
       style="fill:#007893;fill-opacity:1"><path
         d="M407.232,84.626l-12.105,13.705c4.462,3.941,8.795,8.101,12.882,12.389l13.221-12.635    C416.786,93.431,412.069,88.905,407.232,84.626z"
         id="path32"
         style="fill:#007893;fill-opacity:1" /></g></g><g
     id="g42"
     style="fill:#007893;fill-opacity:1"><g
       id="g40"
       style="fill:#007893;fill-opacity:1"><path
         d="M246.418,27.63c-6.464,0.265-12.974,0.814-19.355,1.618l2.304,18.149c5.87-0.75,11.858-1.253,17.81-1.499L246.418,27.63z"
         id="path38"
         style="fill:#007893;fill-opacity:1" /></g></g><g
     id="g48"
     style="fill:#007893;fill-opacity:1"><g
       id="g46"
       style="fill:#007893;fill-opacity:1"><path
         d="M341.458,43.95l-6.839,16.951c5.504,2.222,10.971,4.709,16.265,7.387l8.256-16.311    C353.399,49.07,347.447,46.363,341.458,43.95z"
         id="path44"
         style="fill:#007893;fill-opacity:1" /></g></g><g
     id="g54"
     style="fill:#007893;fill-opacity:1"><g
       id="g52"
       style="fill:#007893;fill-opacity:1"><path
         d="M207.909,32.503c-6.29,1.344-12.608,2.99-18.798,4.873l5.33,17.49c5.696-1.737,11.52-3.246,17.307-4.489L207.909,32.503z"
         id="path50"
         style="fill:#007893;fill-opacity:1" /></g></g><g
     id="g60"
     style="fill:#007893;fill-opacity:1"><g
       id="g58"
       style="fill:#007893;fill-opacity:1"><path
         d="M78.08,112.521c-4.078,5.047-7.963,10.304-11.547,15.625l15.159,10.231c3.301-4.882,6.875-9.719,10.624-14.373    L78.08,112.521z"
         id="path56"
         style="fill:#007893;fill-opacity:1" /></g></g><g
     id="g66"
     style="fill:#007893;fill-opacity:1"><g
       id="g64"
       style="fill:#007893;fill-opacity:1"><path
         d="M304.338,32.558l-3.849,17.874c5.797,1.243,11.621,2.761,17.289,4.507l5.367-17.481    C316.983,35.566,310.656,33.911,304.338,32.558z"
         id="path62"
         style="fill:#007893;fill-opacity:1" /></g></g><g
     id="g72"
     style="fill:#007893;fill-opacity:1"><g
       id="g70"
       style="fill:#007893;fill-opacity:1"><path
         d="M265.829,27.639l-0.777,18.267c5.97,0.247,11.968,0.759,17.819,1.509l2.313-18.139    C278.821,28.471,272.311,27.913,265.829,27.639z"
         id="path68"
         style="fill:#007893;fill-opacity:1" /></g></g><g
     id="g78"
     style="fill:#007893;fill-opacity:1"><g
       id="g76"
       style="fill:#007893;fill-opacity:1"><path
         d="M455.753,144.878l-15.973,8.896c2.898,5.211,5.605,10.587,8.027,15.973l16.677-7.515    C461.842,156.37,458.917,150.537,455.753,144.878z"
         id="path74"
         style="fill:#007893;fill-opacity:1" /></g></g><g
     id="g84"
     style="fill:#007893;fill-opacity:1"><g
       id="g82"
       style="fill:#007893;fill-opacity:1"><path
         d="M136.11,61.367c-5.504,3.401-10.917,7.067-16.082,10.898l10.898,14.693c4.754-3.529,9.719-6.903,14.793-10.03    L136.11,61.367z"
         id="path80"
         style="fill:#007893;fill-opacity:1" /></g></g><g
     id="g90"
     style="fill:#007893;fill-opacity:1"><g
       id="g88"
       style="fill:#007893;fill-opacity:1"><path
         d="M434.03,112.686l-14.235,11.474c3.73,4.626,7.296,9.463,10.615,14.382l15.168-10.231    C441.966,122.962,438.089,117.705,434.03,112.686z"
         id="path86"
         style="fill:#007893;fill-opacity:1" /></g></g><g
     id="g96"
     style="fill:#007893;fill-opacity:1"><g
       id="g94"
       style="fill:#007893;fill-opacity:1"><path
         d="M376.073,61.486l-9.627,15.543c5.056,3.136,10.03,6.51,14.793,10.039l10.898-14.674    C386.971,68.553,381.559,64.878,376.073,61.486z"
         id="path92"
         style="fill:#007893;fill-opacity:1" /></g></g><g
     id="g102"
     style="fill:#007893;fill-opacity:1"><g
       id="g100"
       style="fill:#007893;fill-opacity:1"><path
         d="M170.761,43.858c-5.943,2.395-11.904,5.093-17.701,8.009l8.238,16.329c5.33-2.688,10.816-5.166,16.293-7.378    L170.761,43.858z"
         id="path98"
         style="fill:#007893;fill-opacity:1" /></g></g><g
     id="g108"
     style="fill:#007893;fill-opacity:1"><g
       id="g106"
       style="fill:#007893;fill-opacity:1"><path
         d="M282.633,464.603c-5.87,0.75-11.858,1.253-17.81,1.499l0.759,18.267c6.464-0.265,12.974-0.814,19.355-1.618    L282.633,464.603z"
         id="path104"
         style="fill:#007893;fill-opacity:1" /></g></g><g
     id="g114"
     style="fill:#007893;fill-opacity:1"><g
       id="g112"
       style="fill:#007893;fill-opacity:1"><path
         d="M229.129,464.585l-2.313,18.139c6.363,0.805,12.873,1.362,19.355,1.637l0.777-18.267    C240.978,465.847,234.981,465.335,229.129,464.585z"
         id="path110"
         style="fill:#007893;fill-opacity:1" /></g></g><g
     id="g120"
     style="fill:#007893;fill-opacity:1"><g
       id="g118"
       style="fill:#007893;fill-opacity:1"><path
         d="M194.222,457.061l-5.367,17.481c6.162,1.893,12.489,3.547,18.807,4.901l3.849-17.874    C205.705,460.315,199.89,458.798,194.222,457.061z"
         id="path116"
         style="fill:#007893;fill-opacity:1" /></g></g><g
     id="g126"
     style="fill:#007893;fill-opacity:1"><g
       id="g124"
       style="fill:#007893;fill-opacity:1"><path
         d="M317.559,457.134c-5.696,1.737-11.52,3.246-17.307,4.489l3.84,17.874c6.29-1.344,12.608-2.99,18.798-4.873    L317.559,457.134z"
         id="path122"
         style="fill:#007893;fill-opacity:1" /></g></g><g
     id="g132"
     style="fill:#007893;fill-opacity:1"><g
       id="g130"
       style="fill:#007893;fill-opacity:1"><path
         d="M103.991,401.28L90.77,413.915c4.443,4.654,9.161,9.179,13.998,13.458l12.105-13.705    C112.411,409.728,108.078,405.568,103.991,401.28z"
         id="path128"
         style="fill:#007893;fill-opacity:1" /></g></g><g
     id="g138"
     style="fill:#007893;fill-opacity:1"><g
       id="g136"
       style="fill:#007893;fill-opacity:1"><path
         d="M64.192,342.254l-16.677,7.515c2.642,5.861,5.568,11.694,8.731,17.353l15.973-8.896    C69.321,353.015,66.615,347.639,64.192,342.254z"
         id="path134"
         style="fill:#007893;fill-opacity:1" /></g></g><g
     id="g144"
     style="fill:#007893;fill-opacity:1"><g
       id="g142"
       style="fill:#007893;fill-opacity:1"><path
         d="M81.582,373.458l-15.159,10.231c3.611,5.349,7.488,10.606,11.547,15.625l14.226-11.474    C88.466,383.214,84.901,378.377,81.582,373.458z"
         id="path140"
         style="fill:#007893;fill-opacity:1" /></g></g><g
     id="g150"
     style="fill:#007893;fill-opacity:1"><g
       id="g148"
       style="fill:#007893;fill-opacity:1"><path
         d="M130.77,424.933l-10.898,14.674c5.157,3.84,10.569,7.515,16.055,10.907l9.627-15.543    C140.498,431.845,135.525,428.471,130.77,424.933z"
         id="path146"
         style="fill:#007893;fill-opacity:1" /></g></g><g
     id="g156"
     style="fill:#007893;fill-opacity:1"><g
       id="g154"
       style="fill:#007893;fill-opacity:1"><path
         d="M161.115,443.721l-8.256,16.311c5.751,2.907,11.703,5.614,17.682,8.027l6.839-16.951    C171.877,448.887,166.409,446.4,161.115,443.721z"
         id="path152"
         style="fill:#007893;fill-opacity:1" /></g></g><g
     id="g162"
     style="fill:#007893;fill-opacity:1"><g
       id="g160"
       style="fill:#007893;fill-opacity:1"><path
         d="M381.074,425.042c-4.754,3.529-9.719,6.903-14.793,10.03l9.609,15.561c5.504-3.401,10.917-7.067,16.082-10.898    L381.074,425.042z"
         id="path158"
         style="fill:#007893;fill-opacity:1" /></g></g><g
     id="g168"
     style="fill:#007893;fill-opacity:1"><g
       id="g166"
       style="fill:#007893;fill-opacity:1"><path
         d="M350.711,443.803c-5.33,2.688-10.816,5.166-16.293,7.378l6.821,16.96c5.943-2.395,11.904-5.093,17.701-8.009    L350.711,443.803z"
         id="path164"
         style="fill:#007893;fill-opacity:1" /></g></g><g
     id="g174"
     style="fill:#007893;fill-opacity:1"><g
       id="g172"
       style="fill:#007893;fill-opacity:1"><path
         d="M407.881,401.417c-4.087,4.27-8.43,8.439-12.901,12.379l12.096,13.714c4.855-4.288,9.563-8.805,14.007-13.449    L407.881,401.417z"
         id="path170"
         style="fill:#007893;fill-opacity:1" /></g></g><g
     id="g180"
     style="fill:#007893;fill-opacity:1"><g
       id="g178"
       style="fill:#007893;fill-opacity:1"><path
         d="M447.726,342.446c-2.45,5.413-5.147,10.779-8.037,15.963l15.963,8.914c3.136-5.632,6.08-11.474,8.731-17.353    L447.726,342.446z"
         id="path176"
         style="fill:#007893;fill-opacity:1" /></g></g><g
     id="g186"
     style="fill:#007893;fill-opacity:1"><g
       id="g184"
       style="fill:#007893;fill-opacity:1"><path
         d="M430.309,373.623c-3.301,4.882-6.875,9.719-10.624,14.373l14.235,11.483c4.078-5.047,7.963-10.304,11.547-15.625    L430.309,373.623z"
         id="path182"
         style="fill:#007893;fill-opacity:1" /></g></g><g
     id="g192"
     style="fill:#007893;fill-opacity:1"><g
       id="g190"
       style="fill:#007893;fill-opacity:1"><path
         d="M9.143,0C4.096,0,0,4.096,0,9.143v45.714h18.286V18.286h36.571V0H9.143z"
         id="path188"
         style="fill:#007893;fill-opacity:1" /></g></g><g
     id="g198"
     style="fill:#007893;fill-opacity:1"><g
       id="g196"
       style="fill:#007893;fill-opacity:1"><path
         d="M502.857,0h-45.714v18.286h36.571v36.571H512V9.143C512,4.096,507.904,0,502.857,0z"
         id="path194"
         style="fill:#007893;fill-opacity:1" /></g></g><g
     id="g204"
     style="fill:#007893;fill-opacity:1"><g
       id="g202"
       style="fill:#007893;fill-opacity:1"><path
         d="M18.286,493.714v-36.571H0v45.714C0,507.904,4.096,512,9.143,512h45.714v-18.286H18.286z"
         id="path200"
         style="fill:#007893;fill-opacity:1" /></g></g><g
     id="g210"
     style="fill:#007893;fill-opacity:1"><g
       id="g208"
       style="fill:#007893;fill-opacity:1"><path
         d="M493.714,457.143v36.571h-36.571V512h45.714c5.047,0,9.143-4.096,9.143-9.143v-45.714H493.714z"
         id="path206"
         style="fill:#007893;fill-opacity:1" /></g></g><g
     id="g212" /><g
     id="g214" /><g
     id="g216" /><g
     id="g218" /><g
     id="g220" /><g
     id="g222" /><g
     id="g224" /><g
     id="g226" /><g
     id="g228" /><g
     id="g230" /><g
     id="g232" /><g
     id="g234" /><g
     id="g236" /><g
     id="g238" /><g
     id="g240" /></svg>